<svg xmlns="http://www.w3.org/2000/svg" width="152" height="152" viewBox="0 0 512 512">
  <defs>
    <linearGradient id="grad" x1="0%" y1="0%" x2="100%" y2="100%">
      <stop offset="0%" style="stop-color:#6366f1;stop-opacity:1" />
      <stop offset="100%" style="stop-color:#8b5cf6;stop-opacity:1" />
    </linearGradient>
  </defs>
  <rect width="512" height="512" rx="96" fill="url(#grad)"/>
  <g transform="translate(156, 156)" fill="white">
    <path d="M100 0H100C144.2 0 180 35.8 180 80V120C180 164.2 144.2 200 100 200H100C55.8 200 20 164.2 20 120V80C20 35.8 55.8 0 100 0Z" opacity="0.2"/>
    <rect x="60" y="40" width="80" height="120" rx="8" fill="white"/>
    <rect x="75" y="60" width="50" height="8" rx="2" fill="#6366f1"/>
    <rect x="75" y="80" width="50" height="8" rx="2" fill="#6366f1"/>
    <rect x="75" y="100" width="35" height="8" rx="2" fill="#6366f1"/>
    <rect x="75" y="120" width="50" height="8" rx="2" fill="#6366f1"/>
  </g>
</svg>